<svg xmlns="http://www.w3.org/2000/svg" viewBox="0 0 64 64">
  <!-- Reactor outline -->
  <path d="M18 14h28c3 0 6 3 6 6v18c0 8-6 12-14 12H26c-8 0-14-4-14-12V20c0-3 3-6 6-6z" fill="#30384d" stroke="#8a94ad" stroke-width="2"/>

  <!-- Input lines -->
  <line x1="24" y1="6" x2="24" y2="14" stroke="#3b82f6" stroke-width="3" stroke-linecap="round"/>
  <circle cx="24" cy="6" r="3" fill="#3b82f6"/>
  <line x1="40" y1="6" x2="40" y2="14" stroke="#f59e0b" stroke-width="3" stroke-linecap="round"/>
  <circle cx="40" cy="6" r="3" fill="#f59e0b"/>

  <!-- Jacket rim -->
  <path d="M18 18h28" stroke="#9aa4bf" stroke-width="2" stroke-linecap="round"/>

  <!-- Liquid level -->
  <path d="M20 36c0 7 5 10 12 10h0c7 0 12-3 12-10v-2H20v2z" fill="#2563eb"/>

  <!-- Agitator shaft and blades -->
  <line x1="32" y1="14" x2="32" y2="34" stroke="#cbd5e1" stroke-width="2"/>
  <path d="M24 28h16" stroke="#cbd5e1" stroke-width="2" stroke-linecap="round"/>
  <path d="M26 24l12 4" stroke="#cbd5e1" stroke-width="2" stroke-linecap="round"/>

</svg>
